<?xml version="1.0" encoding="UTF-8"?>
<svg width="292px" height="47px" viewBox="0 0 292 47" version="1.1" xmlns="http://www.w3.org/2000/svg" xmlns:xlink="http://www.w3.org/1999/xlink">
    <!-- Generator: Sketch 50.2 (55047) - http://www.bohemiancoding.com/sketch -->
    <title>logo</title>
    <desc>Created with Sketch.</desc>
    <defs></defs>
    <g id="Page-1" stroke="none" stroke-width="1" fill="none" fill-rule="evenodd">
        <g id="logo" fill="#359884" fill-rule="nonzero">
            <path d="M23.179,24.936 L23.179,22.296 L45.817,22.296 C45.817,36.618 35.785,46.254 23.179,46.254 C10.705,46.254 0.541,36.156 0.541,23.748 C0.541,11.208 10.705,0.978 23.179,0.978 C29.449,0.978 35.125,3.552 39.217,7.71 L26.545,20.382 C25.687,19.524 24.499,18.996 23.179,18.996 C20.539,18.996 18.427,21.108 18.427,23.748 C18.427,26.388 20.539,28.5 23.179,28.5 C25.423,28.5 27.271,27.048 27.799,24.936 L23.179,24.936 Z M82.645,28.5 C82.645,29.358 82.579,30.084 82.579,30.084 L61.657,30.084 C62.251,31.602 63.703,32.592 65.617,32.592 C66.409,32.592 67.861,32.328 68.719,31.668 L76.837,41.37 C73.669,44.01 69.709,45.66 65.485,45.66 C56.047,45.66 48.325,37.938 48.325,28.5 C48.325,19.062 56.047,11.34 65.485,11.34 C74.923,11.34 82.645,19.062 82.645,28.5 Z M65.485,24.408 C63.505,24.408 61.921,25.662 61.459,27.378 L69.379,27.378 C68.917,25.662 67.333,24.408 65.485,24.408 Z M89.047,35.1 L89.047,22.758 L85.153,22.758 L85.153,16.62 L102.907,3.288 L102.907,12 L108.319,12 L108.319,22.758 L102.907,22.758 L102.907,30.612 C102.907,33.846 104.623,34.242 106.339,34.242 C107.197,34.242 107.989,34.044 108.319,33.846 L108.319,44.01 C105.151,45.33 101.983,45.726 99.739,45.726 C93.535,45.726 89.047,43.218 89.047,35.1 Z M134.125,24.936 L134.125,22.296 L156.763,22.296 C156.763,36.618 146.731,46.254 134.125,46.254 C121.651,46.254 111.487,36.156 111.487,23.748 C111.487,11.208 121.651,0.978 134.125,0.978 C140.395,0.978 146.071,3.552 150.163,7.71 L137.491,20.382 C136.633,19.524 135.445,18.996 134.125,18.996 C131.485,18.996 129.373,21.108 129.373,23.748 C129.373,26.388 131.485,28.5 134.125,28.5 C136.369,28.5 138.217,27.048 138.745,24.936 L134.125,24.936 Z M181.843,11.34 L181.843,25.266 C180.919,24.87 179.731,24.606 178.675,24.606 C176.497,24.606 174.451,25.53 173.791,27.906 L173.791,45 L159.931,45 L159.931,12 L172.471,12 L172.471,15.036 C174.715,12.858 177.817,11.34 181.843,11.34 Z M219.463,28.5 C219.463,29.358 219.397,30.084 219.397,30.084 L198.475,30.084 C199.069,31.602 200.521,32.592 202.435,32.592 C203.227,32.592 204.679,32.328 205.537,31.668 L213.655,41.37 C210.487,44.01 206.527,45.66 202.303,45.66 C192.865,45.66 185.143,37.938 185.143,28.5 C185.143,19.062 192.865,11.34 202.303,11.34 C211.741,11.34 219.463,19.062 219.463,28.5 Z M202.303,24.408 C200.323,24.408 198.739,25.662 198.277,27.378 L206.197,27.378 C205.735,25.662 204.151,24.408 202.303,24.408 Z M256.423,28.5 C256.423,29.358 256.357,30.084 256.357,30.084 L235.435,30.084 C236.029,31.602 237.481,32.592 239.395,32.592 C240.187,32.592 241.639,32.328 242.497,31.668 L250.615,41.37 C247.447,44.01 243.487,45.66 239.263,45.66 C229.825,45.66 222.103,37.938 222.103,28.5 C222.103,19.062 229.825,11.34 239.263,11.34 C248.701,11.34 256.423,19.062 256.423,28.5 Z M239.263,24.408 C237.283,24.408 235.699,25.662 235.237,27.378 L243.157,27.378 C242.695,25.662 241.111,24.408 239.263,24.408 Z M259.723,45 L259.723,12 L272.263,12 L272.263,14.574 C274.309,12.726 277.081,11.34 280.975,11.34 C287.443,11.34 291.997,15.036 291.997,24.936 L291.997,45 L278.137,45 L278.137,27.444 C278.137,25.596 277.213,24.936 275.893,24.936 C274.903,24.936 273.979,25.464 273.583,26.388 L273.583,45 L259.723,45 Z" id="GetGreen"></path>
        </g>
    </g>
</svg>