<svg xmlns="http://www.w3.org/2000/svg" width="420" height="338" viewBox="0 0 420 338" xmlns:xlink="http://www.w3.org/1999/xlink"><defs><path id="a" d="M1 47h416v285.83c0 1.5-1.2 2.17-3.85 2.17H4.85C2.2 335 1 334.33 1 332.83V47z"/><rect id="c" width="77.27" height="89.52" rx="2"/><rect id="e" width="77.27" height="89.52" rx="2"/><rect id="g" width="77.27" height="89.52" rx="2"/><rect id="i" width="77.27" height="89.52" rx="2"/><polygon id="k" points="48.581 .151 48.581 34.212 0 34.212 0 .151 48.581 .151"/><polygon id="l" points="21.719 2.202 .435 2.202 .435 .092 21.719 .092 21.719 2.202"/></defs><g fill="none" fill-rule="evenodd" transform="translate(1 1)"><rect width="418" height="336" fill="#45B2E8" stroke="#EFF1F5" stroke-width="2" rx="4"/><rect width="37" height="3" x="312" y="22" fill="#FFFFFF" fill-opacity=".31" rx="1"/><rect width="37" height="3" x="13" y="22" fill="#FFFFFF" fill-opacity=".31" rx="1"/><rect width="20" height="3" x="361" y="22" fill="#FFFFFF" fill-opacity=".31" rx="1"/><rect width="23" height="3" x="62" y="22" fill="#FFFFFF" fill-opacity=".31" rx="1"/><rect width="10" height="3" x="97" y="22" fill="#FFFFFF" fill-opacity=".31" rx="1"/><mask id="b" fill="white"><use xlink:href="#a"/></mask><use fill="#FFFFFF" xlink:href="#a"/><rect width="56" height="5" x="21" y="66" fill="#F6F9FC" mask="url(#b)" rx="1"/><rect width="121" height="5" x="21" y="77" fill="#F6F9FC" mask="url(#b)" rx="1"/><rect width="147" height="288" x="1" y="47" fill="#F6F9FC" mask="url(#b)"/><rect width="418" height="39" y="296" fill="#FFFFFF" mask="url(#b)"/><rect width="416" height="1" x=".5" y="296.5" stroke="#EFF1F5" mask="url(#b)"/><g fill="#FFFFFF" transform="translate(170 15)"><path d="M6.07 16.4a5.9 5.9 0 0 1-5.98-6c0-3.3 2.54-6.05 6-6.05 2.18 0 3.54.8 4.61 1.99L9.06 8.11c-.8-.85-1.66-1.44-3-1.44-1.92 0-3.32 1.66-3.32 3.7 0 2.07 1.42 3.73 3.46 3.73 1.24 0 2.16-.59 3-1.44l1.59 1.58a5.84 5.84 0 0 1-4.72 2.16m13.18-5.16a7.57 7.57 0 0 0-2.64-.46c-1.67 0-2.65.68-2.65 1.86v.04c0 1.1.98 1.7 2.23 1.7 1.75 0 3.06-.98 3.06-2.42v-.72zm-.06 4.9v-1.42c-.79.94-2 1.66-3.74 1.66-2.19 0-4.11-1.25-4.11-3.57v-.04c0-2.5 1.99-3.72 4.68-3.72 1.4 0 2.3.2 3.19.48v-.28c0-1.6-1-2.47-2.84-2.47-1.3 0-2.26.28-3.3.72l-.73-2.12a9.9 9.9 0 0 1 4.4-.96c3.41 0 5.07 1.79 5.07 4.87v6.85H19.2zm7.77-3.61c0 1.03.52 1.44 1.42 1.44.59 0 1.11-.13 1.64-.4v2.17c-.66.38-1.4.6-2.39.6-1.94 0-3.32-.86-3.32-3.4V6.86h-1.47V4.6h1.47V1.42h2.65v3.17h3.1v2.27h-3.1v5.67m11.8-1.3a7.57 7.57 0 0 0-2.64-.45c-1.66 0-2.65.68-2.65 1.86v.04c0 1.1.99 1.7 2.23 1.7 1.75 0 3.07-.98 3.07-2.42v-.72zm-.06 4.9v-1.41c-.79.94-1.99 1.66-3.74 1.66-2.19 0-4.11-1.25-4.11-3.57v-.04c0-2.5 1.99-3.72 4.68-3.72 1.4 0 2.3.2 3.2.48v-.28c0-1.6-1.01-2.47-2.85-2.47-1.3 0-2.25.28-3.3.72l-.73-2.12a9.9 9.9 0 0 1 4.4-.96c3.41 0 5.07 1.79 5.07 4.87v6.85H38.7z"/><polyline points="54.907 13.907 57.882 4.83 59.633 4.83 55.652 16.227 54.185 16.227 51.145 7.302 48.083 16.227 46.595 16.227 42.637 4.83 44.43 4.83 47.405 13.907 50.445 4.787 51.845 4.787 54.907 13.907"/><polygon points="61.359 16.138 63.043 16.138 63.043 4.83 61.359 4.83"/><polyline points="75.472 16.138 73.46 16.138 69.412 10.865 67.117 13.186 67.117 16.138 65.431 16.138 65.431 .172 67.117 .172 67.117 11.195 73.219 4.83 75.319 4.83 70.574 9.685 75.472 16.138"/><polygon points="76.835 16.138 78.52 16.138 78.52 4.83 76.835 4.83"/><path d="M63.26 1.42a1.06 1.06 0 1 1-2.11 0 1.06 1.06 0 0 1 2.1 0m15.48 0a1.06 1.06 0 1 1-2.1 0 1.06 1.06 0 0 1 2.1 0"/></g><g stroke="#FFFFFF" stroke-width="2" transform="translate(393 19)"><circle cx="4" cy="4" r="4"/><path d="M6.5 6.5L10 10"/></g><rect width="147" height="1" x=".5" y="70.5" stroke="#EFF1F5"/><rect width="23" height="1" x="62.5" y="58.5" stroke="#EFF1F5" transform="rotate(90 74 59)"/><rect width="72" height="2" x="1" y="68" fill="#C4F0FF"/><rect width="24" height="3" x="25" y="58" fill="#E3E7ED" rx="1"/><rect width="19" height="3" x="102" y="58" fill="#E3E7ED" rx="1"/><rect width="55" height="3" x="160" y="58" fill="#C4F0FF" rx="1"/><rect width="90" height="3" x="13" y="95" fill="#E3E7ED" rx="1"/><rect width="41" height="3" x="13" y="121" fill="#E3E7ED" rx="1"/><rect width="90" height="3" x="13" y="147" fill="#E3E7ED" rx="1"/><rect width="62" height="3" x="13" y="173" fill="#E3E7ED" rx="1"/><rect width="24" height="3" x="13" y="199" fill="#E3E7ED" rx="1"/><rect width="33" height="3" x="160" y="214" fill="#C4F0FF" rx="1"/><g fill="#E6EBF1" transform="translate(160 242)"><circle cx="21.21" cy="21.21" r="21.21"/><circle cx="89.21" cy="21.21" r="21.21"/><circle cx="157.21" cy="21.21" r="21.21"/></g><rect width="15" height="3" x="174" y="262" fill="#9E9EB2" rx="1"/><rect width="15" height="3" x="310" y="262" fill="#9E9EB2" rx="1"/><g fill="#9E9EB2" transform="translate(242 256)"><rect width="15" height="3" y="6" rx="1"/><rect width="15" height="3" y="6" transform="rotate(90 7.5 7.5)" rx="1"/></g><rect width="86" height="3" x="13" y="225" fill="#E3E7ED" rx="1"/><rect width="24" height="3" x="13" y="251" fill="#E3E7ED" rx="1"/><rect width="34" height="3" x="13" y="277" fill="#E3E7ED" rx="1"/><g fill="#E3E7ED" fill-rule="nonzero" transform="translate(126 92.3)"><path d="M3.4 5.1H2.25l.57-.57.56.56zm1.13-2.27h1.13L2.83 5.66 0 2.83h1.13l1.7 1.7 1.7-1.7zM3.39 5.09H2.26l.57-.56.56.56zm1.14-2.26h1.13L2.83 5.66 0 2.83h1.13l1.7 1.7 1.7-1.7z"/><path d="M3.4 31.1H2.25l.57-.57.56.56zm1.13-2.27h1.13l-2.83 2.83L0 28.83h1.13l1.7 1.7 1.7-1.7zm-1.14 2.26H2.26l.57-.56.56.56zm1.14-2.26h1.13l-2.83 2.83L0 28.83h1.13l1.7 1.7 1.7-1.7z"/><path d="M3.4 57.1H2.25l.57-.57.56.56zm1.13-2.27h1.13l-2.83 2.83L0 54.83h1.13l1.7 1.7 1.7-1.7zm-1.14 2.26H2.26l.57-.56.56.56zm1.14-2.26h1.13l-2.83 2.83L0 54.83h1.13l1.7 1.7 1.7-1.7z"/><path d="M3.4 83.1H2.25l.57-.57.56.56zm1.13-2.27h1.13l-2.83 2.83L0 80.83h1.13l1.7 1.7 1.7-1.7zm-1.14 2.26H2.26l.57-.56.56.56zm1.14-2.26h1.13l-2.83 2.83L0 80.83h1.13l1.7 1.7 1.7-1.7z"/><path d="M3.4 109.1H2.25l.57-.57.56.56zm1.13-2.27h1.13l-2.83 2.83L0 106.83h1.13l1.7 1.7 1.7-1.7zm-1.14 2.26H2.26l.57-.56.56.56zm1.14-2.26h1.13l-2.83 2.83L0 106.83h1.13l1.7 1.7 1.7-1.7z"/><path d="M3.4 135.1H2.25l.57-.57.56.56zm1.13-2.27h1.13l-2.83 2.83L0 132.83h1.13l1.7 1.7 1.7-1.7zm-1.14 2.26H2.26l.57-.56.56.56zm1.14-2.26h1.13l-2.83 2.83L0 132.83h1.13l1.7 1.7 1.7-1.7z"/><path d="M3.4 161.1H2.25l.57-.57.56.56zm1.13-2.27h1.13l-2.83 2.83L0 158.83h1.13l1.7 1.7 1.7-1.7zm-1.14 2.26H2.26l.57-.56.56.56zm1.14-2.26h1.13l-2.83 2.83L0 158.83h1.13l1.7 1.7 1.7-1.7z"/><path d="M3.4 187.1H2.25l.57-.57.56.56zm1.13-2.27h1.13l-2.83 2.83L0 184.83h1.13l1.7 1.7 1.7-1.7zm-1.14 2.26H2.26l.57-.56.56.56zm1.14-2.26h1.13l-2.83 2.83L0 184.83h1.13l1.7 1.7 1.7-1.7z"/></g><g transform="translate(158 311)"><path fill="#E3E7ED" fill-rule="nonzero" d="M53 10.4l4.3-4.32a2.96 2.96 0 0 0 0-4.19 2.94 2.94 0 0 0-4.18.02h-.25a2.94 2.94 0 0 0-4.2-.02 2.96 2.96 0 0 0 0 4.19L53 10.39z"/><path fill="#E3E7ED" d="M102 9.36c0 .37-.3.71-.8 1h-7.96c-.5-.29-.8-.63-.8-1 0-.99 2.14-1.79 4.78-1.79s4.78.8 4.78 1.8zm-4.78-2.98a2.79 2.79 0 1 1 0-5.58 2.79 2.79 0 0 1 0 5.58z"/><g fill="#45B2E8"><path d="M6.28.24l4.52 3.51a.5.5 0 0 1-.3.9H1.46a.5.5 0 0 1-.31-.9L5.67.24a.5.5 0 0 1 .61 0z"/><rect width="7.97" height="6.64" x="1.99" y="3.98" rx=".5"/></g></g><g transform="translate(160 78)"><mask id="d" fill="white"><use xlink:href="#c"/></mask><use fill="#F6F9FC" xlink:href="#c"/><rect width="79" height="14" x="-1" y="76" fill="#45B2E8" mask="url(#d)"/><rect width="15" height="3" x="31" y="81" fill="#FFFFFF" fill-opacity=".44" mask="url(#d)" rx="1"/><g transform="translate(83.865)"><mask id="f" fill="white"><use xlink:href="#e"/></mask><use fill="#F6F9FC" xlink:href="#e"/><rect width="79" height="15" x="-1" y="76" fill="#45B2E8" mask="url(#f)"/></g><g transform="translate(84)"><mask id="h" fill="white"><use xlink:href="#g"/></mask><use fill="#FEFDE5" xlink:href="#g"/><rect width="79" height="14" x="-1" y="76" fill="#45B2E8" mask="url(#h)"/><rect width="23" height="3" x="28" y="81" fill="#FFFFFF" fill-opacity=".44" mask="url(#h)" rx="1"/></g><g transform="translate(167.73)"><mask id="j" fill="white"><use xlink:href="#i"/></mask><use fill="#F6F9FC" xlink:href="#i"/><rect width="79" height="14" x="-1" y="76" fill="#45B2E8" mask="url(#j)"/></g><rect width="20" height="3" x="196" y="81" fill="#FFFFFF" fill-opacity=".44" rx="1"/></g><rect width="270" height="2" x="148" y="190" fill="#EFF1F5"/><g transform="translate(338 93)"><path fill="#8998A9" d="M48.5 24.6l.93 1.04 3.25-2.93 2 2.22-5.92 5.32-1-1.1-12.1-13.45a5.77 5.77 0 1 1 2.66-2.4l8.18 9.09 1.77-1.6 2 2.22-1.77 1.6zM35.47 12.81a3.2 3.2 0 1 0-4.29-4.76 3.2 3.2 0 0 0 4.29 4.76z"/><path stroke="#9CB1C9" stroke-width=".5" d="M43.4 22.72l5.3 5.9" stroke-linecap="round" stroke-linejoin="round"/><path fill="#000000" d="M33.58 31.85l-.16 2.46a2.08 2.08 0 0 0-1.43 1.97c0 .82.48 1.52 1.18 1.86l-.13 1.97a2.06 2.06 0 0 0-.22 3.45l-.33 5.07h-4.6l-1.72-26.41h-.42v-1.93c-3.11-1.08-5.24-3.26-5.24-5.78 0-2.72 2.5-5.06 6.02-6.01a3.72 3.72 0 0 1 3.71-3.16c1.92 0 3.5 1.41 3.72 3.23 3.4 1 5.76 3.28 5.76 5.94 0 2.45-2.01 4.59-4.99 5.69v2.02h-.52l-.37 5.69a2.09 2.09 0 0 0-1.6 2.01c0 .88.55 1.63 1.34 1.93zm-3.34-20.64c1.24 0 2.25-.98 2.25-2.2 0-1.22-1-2.2-2.25-2.2C29 6.8 28 7.79 28 9c0 1.22 1.01 2.2 2.25 2.2z" style="mix-blend-mode:overlay" opacity=".5"/><path fill="#CFD7DE" d="M32.32 29.7l-.3 4.61a2.08 2.08 0 0 0-1.43 1.97c0 .82.48 1.52 1.18 1.86l-.12 1.97a2.06 2.06 0 0 0-.22 3.45l-.34 5.07h-4.6l-1.71-26.41h-.43v-1.93c-3.1-1.08-5.24-3.26-5.24-5.78 0-2.72 2.5-5.06 6.03-6.01a3.72 3.72 0 0 1 3.7-3.16c1.92 0 3.5 1.41 3.72 3.23 3.4 1 5.77 3.28 5.77 5.94 0 2.45-2.02 4.59-5 5.69v2.02h-.52l-.23 3.45a2.1 2.1 0 0 0-1.74 2.05c0 .93.62 1.72 1.48 1.98zm-3.48-18.49c1.25 0 2.25-.98 2.25-2.2 0-1.22-1-2.2-2.25-2.2-1.24 0-2.24.98-2.24 2.2 0 1.22 1 2.2 2.24 2.2z"/><path fill="#000000" d="M24.23 6.15a3.3 3.3 0 0 1 4.66.1 3.3 3.3 0 0 1-.06 4.66l1.38 1.43a2 2 0 0 1-.06 2.83L13.22 31.52a2 2 0 0 1-2.83-.05l-7.35-7.61a2 2 0 0 1 .05-2.83L20.03 4.68a2 2 0 0 1 2.82.04l1.38 1.43zm1.36 3.3c.5.52 1.34.54 1.86.03.52-.5.53-1.33.02-1.86a1.32 1.32 0 0 0-1.86-.04c-.52.5-.53 1.34-.02 1.86z" style="mix-blend-mode:overlay" opacity=".79"/><path fill="#74E4A2" d="M23.72 5.18a3.3 3.3 0 0 1 4.66.1 3.3 3.3 0 0 1-.05 4.67l1.37 1.42a2 2 0 0 1-.05 2.83L12.25 31a2 2 0 0 1-2.84-.04l-7.35-7.61a2 2 0 0 1 .06-2.83l17.4-16.8a2 2 0 0 1 2.83.03l1.37 1.43zm1.36 3.3c.51.52 1.34.54 1.87.04.52-.5.53-1.34.02-1.87a1.32 1.32 0 0 0-1.87-.04c-.52.5-.53 1.34-.02 1.86z"/><path stroke="#D6FACF" stroke-width=".5" d="M19.55 5.67L2.98 21.4" stroke-linecap="round" stroke-linejoin="round"/></g><g transform="translate(260 84)"><path fill="#FCE883" d="M38.33 46.3c0 7.5-6.29 13.58-14.04 13.58-7.75 0-14.04-6.08-14.04-13.58s6.29-23.89 14.04-23.89c7.75 0 14.04 16.39 14.04 23.89z"/><path fill="#74E4A2" d="M43.6 34.7a.57.57 0 1 1-1.13 0 .57.57 0 0 1 1.14 0m0 1.65a.57.57 0 1 1-1.14 0 .57.57 0 0 1 1.14 0m0 1.65a.57.57 0 1 1-1.14 0 .57.57 0 0 1 1.14 0m0 1.65a.57.57 0 1 1-1.14 0 .57.57 0 0 1 1.14 0m0 1.64a.57.57 0 1 1-1.14 0 .57.57 0 0 1 1.14 0m0 1.65a.57.57 0 1 1-1.14 0 .57.57 0 0 1 1.14 0"/><g transform="translate(0 .4)"/><g transform="translate(13.213 58.21)"/><path fill="#E39F48" d="M12.73 35.24c.29-.74.6-1.48.92-2.2h21.28c.75 1.66 1.4 3.39 1.92 5.08-2.74-1.88-5.99-2.88-9.32-2.88h-14.8z"/><path fill="#F5BE58" d="M47.04 34.61H1.54a1.54 1.54 0 0 1-1.39-2.2L15 6.93c.26-.53.8-.87 1.39-.87h15.8c.6 0 1.13.34 1.39.87L48.43 32.4a1.54 1.54 0 0 1-1.39 2.2"/><path fill="#E39F48" d="M35.76 54.14a14.17 14.17 0 0 1-13.74 5.57v-1.35c6.46 0 11.04-1.4 13.74-4.22z"/><path fill="#FCF4B2" d="M17.36 58.12a13.51 13.51 0 0 1-7.1-11.82c0-1.4.21-3.13.62-4.99-.16 6.9 2 12.51 6.48 16.8z"/><circle cx="13.21" cy="41.29" r="1" fill="#FCF4B2"/><circle cx="15.42" cy="9.91" r="1" fill="#FCD669"/><path stroke="#FCD669" d="M14.4 11.82L11 17.62" stroke-linecap="round" stroke-linejoin="round"/></g><path fill="#F5BE58" d="M293.88 143.41H274.7c-.58 0-1.05-.47-1.05-1.05 0-.58.47-1.06 1.05-1.06h19.18a1.06 1.06 0 0 1 0 2.11"/><rect width="10" height="1" x="279" y="143.41" fill="#FEFDE5"/><path fill="#E39F48" d="M293.32 143.41h.56c.58 0 1.05-.47 1.05-1.05 0-.58-.47-1.06-1.05-1.06h-.24c.51.73.44 1.4-.21 2l-.1.11z"/><path fill="#FCD669" d="M274.69 143.41a1.06 1.06 0 0 1-.36-2.04 1.57 1.57 0 0 0 .36 2.04z"/><g transform="translate(177 101)"><polygon fill="#FFFFFF" points="26.584 20.367 2.75 22.219 2.75 30.551 22.916 38.884 44 26.848 44 18.516"/><polygon fill="#74E4A2" points="2.306 22.45 22.896 30.79 43.645 18.524 22.896 10.184"/><polygon stroke="#74E4A2" points="43.645 18.524 22.896 30.79 2.306 22.45 22.896 10.184" stroke-linecap="round" stroke-linejoin="round"/><polyline stroke="#74E4A2" points="44 27.027 23.251 39.033 2.661 30.868" stroke-linecap="round" stroke-linejoin="round"/><path stroke="#74E4A2" d="M2.48 30.79A4.65 4.65 0 0 1 0 26.49c0-1.84 1.1-3.35 2.61-4.22" stroke-linecap="round" stroke-linejoin="round"/><polygon fill="#FFFFFF" points="26.584 10.184 2.75 12.035 2.75 20.368 22.916 28.7 44 16.664 44 8.332"/><polygon fill="#8898AA" points="2.306 12.266 22.896 20.607 43.645 8.341 22.896 0"/><polygon stroke="#8898AA" points="43.645 8.34 22.896 20.606 2.306 12.266 22.896 0" stroke-linecap="round" stroke-linejoin="round"/><polyline stroke="#8898AA" points="44 16.844 23.251 28.849 2.661 20.685" stroke-linecap="round" stroke-linejoin="round"/><path stroke="#CFD7DF" stroke-width=".5" d="M44 13.98l-20.54 12-5.15-2.06m-3.8-1.53L3.9 18.15M44 22.35L23.46 34.37l-5.15-2.06m-3.8-1.53L3.9 26.53" stroke-linecap="round" stroke-linejoin="round"/><path stroke="#CFD7DF" stroke-width=".5" d="M44 24.45L28.38 33.6m-2.04 1.19l-2.88 1.68-8.96-3.6m0 0L3.9 28.63M44 12.34l-10.5 6.08m-2.95 1.7l-7.28 4.22L3.9 16.66" stroke-linecap="round" stroke-linejoin="round"/><path stroke="#8898AA" d="M2.48 20.6A4.65 4.65 0 0 1 0 16.3a4.98 4.98 0 0 1 2.64-4.23" stroke-linecap="round" stroke-linejoin="round"/><path stroke="#E6EBF1" d="M22 4l9.43 4.19M20 5l9.43 4.19" stroke-linecap="round" stroke-linejoin="round"/></g><g transform="translate(363 242)"><rect width="42" height="42" fill="#C4F0FF" rx="2"/><g fill="#FFFFFF" fill-opacity=".82" transform="translate(6.682 16.227)"><rect width="17.18" height="2.86" x="5.73" y="7.64" rx="1"/><rect width="29.59" height="2.86" rx="1"/></g></g></g></svg>