<svg xmlns="http://www.w3.org/2000/svg" width="211" height="375" viewBox="0 0 211 375" xmlns:xlink="http://www.w3.org/1999/xlink"><defs><rect id="a" width="209" height="373" rx="5"/><polygon id="c" points="0 20.457 0 .183 24.738 .183 24.738 20.457"/></defs><g fill="none" fill-rule="evenodd" transform="translate(1 1)"><mask id="b" fill="white"><use xlink:href="#a"/></mask><use fill="#FFFFFF" stroke="#CFD7DF" stroke-width="2" xlink:href="#a"/><rect width="209" height="373" fill="#E6EBF1" mask="url(#b)" rx="5"/><rect width="11" height="24.62" x="-2.09" y="140.61" fill="#F6A4EB" mask="url(#b)" transform="rotate(-60 3.41 152.917)" rx="5.5"/><rect width="11" height="24.62" x="32.91" y="37.61" fill="#FCD669" mask="url(#b)" transform="rotate(-60 38.41 49.917)" rx="5.5"/><rect width="11" height="26.39" x="122.68" y="269.17" fill="#FCD669" mask="url(#b)" transform="rotate(-120 128.177 282.36)" rx="5.5"/><rect width="11" height="33.73" x="160.06" y="25.6" fill="#F6A4EB" mask="url(#b)" transform="rotate(60 165.558 42.466)" rx="5.5"/><rect width="11" height="26.5" x="59.72" y="92.14" fill="#74E4A2" mask="url(#b)" transform="rotate(-120 65.224 105.388)" rx="5.5"/><rect width="11" height="30.18" x="114.32" y="159.22" fill="#74E4A2" mask="url(#b)" transform="rotate(120 119.819 174.308)" rx="5.5"/><rect width="11" height="41.31" x="2.14" y="293.44" fill="#74E4A2" mask="url(#b)" transform="rotate(-120 7.638 314.09)" rx="5.5"/><rect width="11" height="22.78" x="205.11" y="282.07" fill="#F6A4EB" mask="url(#b)" transform="rotate(-120 210.612 293.457)" rx="5.5"/><rect width="11" height="26.5" x="41.72" y="256.14" fill="#FFA27B" mask="url(#b)" transform="rotate(120 47.224 269.388)" rx="5.5"/><rect width="11" height="48.4" x="122.21" y="348.66" fill="#FFA27B" mask="url(#b)" transform="rotate(120 127.707 372.863)" rx="5.5"/><rect width="11" height="26.5" x="149.61" y="102.58" fill="#FFA27B" mask="url(#b)" transform="rotate(57 155.107 115.829)" rx="5.5"/><rect width="11" height="26.5" x="51.61" y="330.58" fill="#F6A4EB" mask="url(#b)" transform="rotate(57 57.107 343.829)" rx="5.5"/><rect width="11" height="26.5" x="203.61" y="178.58" fill="#FCD669" mask="url(#b)" transform="rotate(57 209.107 191.829)" rx="5.5"/><rect width="209" height="373" fill="#292929" opacity=".08" mask="url(#b)" rx="5"/><path fill="#424770" stroke="#32325D" d="M4-1h201c2.76 0 5 4.79 5 10.7V43H-1V9.7C-1 3.8 1.24-1 4-1z" mask="url(#b)"/><rect width="20" height="3" x="176" y="20" fill="#ADBACC" fill-opacity=".4" rx="1"/><rect width="20" height="3" x="176" y="20" fill="#ADBACC" fill-opacity=".4" rx="1"/><rect width="33" height="3" x="162" y="356" fill="#424770" rx="1"/><g transform="translate(82 10)"><path fill="#FFFFFF" d="M36.52 20.82c3.3 0 5.81-1.02 7.15-2.42.7-.78 1.53-1.99.94-2.92-.51-.82-1.38-.98-2.4-.47-1.02.5-2.16.78-3.45.78-1.26 0-2.6-.47-3.3-1.17a4.42 4.42 0 0 1-1.34-3.24c0-.31.2-.35.55-.08.9.7 2.24 1.06 4.05 1.06 3.33 0 6.28-2.23 6.28-5.66C45 3.08 41.54.4 36.32.4c-5.85 0-10.36 3.74-10.36 10.06 0 5.88 3.92 10.37 10.56 10.37"/><g transform="translate(0 .04)"><mask id="d" fill="white"><use xlink:href="#c"/></mask><path fill="#FFFFFF" d="M13.78 15.62l1.89 2.93c.7 1.13 1.3 1.9 2.67 1.9 1.37 0 2-.54 2.67-2.06a45.43 45.43 0 0 0 2.47-7.17c.87-3.4 1.26-5.5 1.26-7.22 0-1.71-.55-2.73-2.44-3.08a58.7 58.7 0 0 0-9.93-.74c-3.85 0-7.34.28-9.94.74C.55 1.27 0 2.3 0 4c0 1.72.4 3.82 1.26 7.22a45.4 45.4 0 0 0 2.47 7.17c.67 1.52 1.3 2.07 2.67 2.07 1.37 0 1.96-.78 2.67-1.91l1.89-2.93c.43-.66.78-1.01 1.4-1.01.64 0 1 .35 1.42 1.01z" mask="url(#d)"/></g></g><circle cx="104.5" cy="203.5" r="65.5" stroke="#FFFFFF" stroke-width="4"/><circle cx="104.5" cy="203.5" r="57.5" fill="#32325D" fill-opacity=".84" opacity=".31"/><polygon fill="#FFFFFF" points="128 179 101.9 209 85.8 193.5 83 196.401 102.1 214.8 131 181.701 131 181.699"/><rect width="53" height="3" x="78" y="227" fill="#FFFFFF" opacity=".5" rx="1.5"/><rect width="25" height="3" x="92" y="234" fill="#FFFFFF" opacity=".5" rx="1.5"/></g></svg>